<?xml version="1.0" encoding="UTF-8"?>
<svg width="162px" height="124px" viewBox="0 0 162 124" version="1.1" xmlns="http://www.w3.org/2000/svg" xmlns:xlink="http://www.w3.org/1999/xlink">
    <title>empty-data (1)</title>
    <g id="页面-1" stroke="none" stroke-width="1" fill="none" fill-rule="evenodd">
        <g id="项目面板-空数据" transform="translate(-728.000000, -372.000000)">
            <g id="empty-data-(1)" transform="translate(728.000000, 372.000000)">
                <path d="M0,111 C0,115.28712 15.3409812,119.248668 40.2473597,121.392286 C65.1537382,123.535905 95.8400506,123.535905 120.746429,121.392286 C145.652808,119.248668 160.993789,115.28712 160.993789,111 C160.993789,106.71288 145.652808,102.751332 120.746429,100.607714 C95.8400506,98.4640955 65.1537382,98.4640955 40.2473597,100.607714 C15.3409812,102.751332 0,106.71288 0,111 Z" id="路径" fill="#F5F6F8"></path>
                <polygon id="路径" fill="#C1C7D0" points="36.3656239 50 127.646798 50 145.900621 70 18.1118012 70"></polygon>
                <path d="M40.2568684,1 L123.755554,1 C126.444398,1 127.78882,2.15624761 127.78882,4.46874283 L127.78882,87.5312572 C127.78882,89.8437524 126.444398,91 123.755554,91 L40.2568684,91 C37.5680244,91 36.2236025,89.8437524 36.2236025,87.5312572 L36.2236025,4.46874283 C36.2236025,2.15624761 37.5680244,1 40.2568684,1 Z" id="路径" fill="#F5F6F8"></path>
                <path d="M52.2961756,10 L112.722458,10 C114.046203,10 114.708075,10.5731792 114.708075,11.7195375 L114.708075,37.2804625 C114.708075,38.4268208 114.046202,39 112.722458,39 L52.2961756,39 C50.9724312,39 50.310559,38.4268208 50.310559,37.2804625 L50.310559,11.7195375 C50.310559,10.5731792 50.9724312,10 52.2961756,10 Z" id="路径" fill="#DADEE3"></path>
                <path d="M52.2961756,53 L112.722458,53 C114.046203,53 114.708075,53.5138086 114.708075,54.5414258 L114.708075,55.4585742 C114.708075,56.4861914 114.046202,57 112.722458,57 L52.2961756,57 C50.9724312,57 50.310559,56.4861914 50.310559,55.4585742 L50.310559,54.5414258 C50.310559,53.5138086 50.9724312,53 52.2961756,53 Z" id="路径" fill="#DADEE3"></path>
                <path d="M52.2961756,64 L112.722458,64 C114.046203,64 114.708075,64.5138086 114.708075,65.5414258 L114.708075,66.4585742 C114.708075,67.4861914 114.046202,68 112.722458,68 L52.2961756,68 C50.9724312,68 50.310559,67.4861914 50.310559,66.4585742 L50.310559,65.5414258 C50.310559,64.5138086 50.9724312,64 52.2961756,64 Z" id="路径" fill="#DADEE3"></path>
                <path d="M18.1138113,70 L50.602767,70 C52.8231796,70 54.6231797,71.5530091 54.6231797,73.4687428 L54.6231797,80.0298698 C54.6231798,81.9456035 56.4231799,83.4986125 58.6435925,83.4986125 L105.366819,83.4986125 C107.587232,83.4986125 109.387232,81.9456035 109.387232,80.0298698 L109.387232,73.4687428 C109.387232,72.548775 109.81081,71.6664867 110.564784,71.0159713 C111.318758,70.3654558 112.341365,70 113.407645,70 L145.900621,70 L145.900621,108.062514 C145.900621,111.893982 142.300621,115 137.859796,115 L26.1526267,115 C21.7118014,115 18.1118012,111.893982 18.1118012,108.062514 L18.1118012,70 L18.1138113,70 Z" id="路径" fill="#DADEE3"></path>
            </g>
        </g>
    </g>
</svg>
